<svg width="11" height="11" viewBox="0 0 11 11" fill="none" xmlns="http://www.w3.org/2000/svg">
<path d="M0.589556 8.81283C0.22863 9.1664 0.213921 9.81461 0.597004 10.1902C0.972638 10.566 1.62085 10.5513 1.97442 10.1977L5.39228 6.77984L8.81014 10.1902C9.17842 10.5586 9.81192 10.566 10.1876 10.1829C10.5633 9.80726 10.5633 9.17375 10.195 8.80547L6.77715 5.39497L10.195 1.97711C10.5633 1.60883 10.5633 0.975328 10.1876 0.599694C9.81192 0.216611 9.17842 0.223966 8.81014 0.592246L5.39228 4.00275L1.97442 0.584892C1.62085 0.23132 0.972638 0.216612 0.597004 0.592246C0.213921 0.967975 0.22863 1.61619 0.589556 1.97711L4.00741 5.39497L0.589556 8.81283Z" fill="#F8F8F2"/>
</svg>
