<svg width="19" height="22" viewBox="0 0 19 22" fill="none" xmlns="http://www.w3.org/2000/svg">
<path d="M1.9074 18.7251C1.20777 18.7251 0.703125 19.2526 0.703125 19.9637C0.703125 20.6748 1.20777 21.2024 1.9074 21.2024H17.0583C17.7694 21.2024 18.2855 20.6748 18.2855 19.9637C18.2855 19.2526 17.7694 18.7251 17.0583 18.7251H9.76383C10.0162 18.6792 10.2455 18.5415 10.429 18.3466L17.7579 11.0865C18.0332 10.8113 18.1708 10.5016 18.1708 10.169C18.1708 9.45791 17.6547 8.94179 16.9665 8.94179C16.611 8.94179 16.2898 9.09089 16.0604 9.32028L13.6978 11.6371L10.6355 14.9976L10.7502 12.589V1.91115C10.7502 1.15418 10.2341 0.638062 9.50003 0.638062C8.75453 0.638062 8.23842 1.15418 8.23842 1.91115V12.589L8.35311 15.009L5.29082 11.6371L2.93963 9.32028C2.69877 9.07942 2.3891 8.94179 2.03356 8.94179C1.33393 8.94179 0.829287 9.45791 0.829287 10.169C0.829287 10.5016 0.955448 10.8113 1.23071 11.0865L8.55956 18.3466C8.74306 18.5415 8.97245 18.6792 9.22477 18.7251H1.9074Z" fill="#F8F8F2"/>
</svg>
