<svg width="39" height="42" viewBox="0 0 39 42" fill="none" xmlns="http://www.w3.org/2000/svg">
<g clip-path="url(#clip0_37_436)" filter="url(#filter0_d_37_436)">
<path d="M21.6053 19.1492L18.7768 22.2531L18.875 20.1913L18.8751 20.1913V20.1853V9.50746C18.8751 9.09991 18.7357 8.74886 18.4893 8.49924C18.2428 8.24955 17.8971 8.10938 17.5 8.10938C17.0976 8.10938 16.7491 8.2492 16.501 8.49895C16.2528 8.74866 16.1134 9.09988 16.1134 9.50746V20.1853H16.1132L16.1135 20.1912L16.2117 22.2638L13.3833 19.1493L13.3835 19.1492L13.3785 19.1443L11.028 16.8282C11.0279 16.8281 11.0277 16.828 11.0276 16.8279C10.7645 16.5649 10.4236 16.4131 10.0335 16.4131C9.26252 16.4131 8.70425 16.9875 8.70425 17.7653C8.70425 18.1334 8.84531 18.4743 9.14228 18.7712L9.1427 18.7717L16.47 26.0302C16.5271 26.0907 16.5887 26.1464 16.6541 26.1964H9.90736C9.13484 26.1964 8.57809 26.7838 8.57809 27.56C8.57809 28.3363 9.13484 28.9237 9.90736 28.9237H25.0582C25.8399 28.9237 26.4104 28.3386 26.4104 27.56C26.4104 26.7815 25.8399 26.1964 25.0582 26.1964H18.3344C18.3998 26.1464 18.4614 26.0907 18.5185 26.0302L25.8458 18.7717L25.8462 18.7712C26.1411 18.4764 26.2957 18.1361 26.2957 17.7653C26.2957 16.9868 25.7252 16.4131 24.9665 16.4131C24.5756 16.4131 24.2235 16.5769 23.9725 16.8278C23.9723 16.8279 23.9722 16.8281 23.972 16.8282L21.6102 19.1441L21.6101 19.144L21.6053 19.1492Z" fill="#E1E2E8" stroke="#E1E2E8" stroke-width="0.25"/>
</g>
<defs>
<filter id="filter0_d_37_436" x="0" y="0" width="39" height="41.1924" filterUnits="userSpaceOnUse" color-interpolation-filters="sRGB">
<feFlood flood-opacity="0" result="BackgroundImageFix"/>
<feColorMatrix in="SourceAlpha" type="matrix" values="0 0 0 0 0 0 0 0 0 0 0 0 0 0 0 0 0 0 127 0" result="hardAlpha"/>
<feOffset dx="2" dy="2"/>
<feGaussianBlur stdDeviation="5"/>
<feColorMatrix type="matrix" values="0 0 0 0 0 0 0 0 0 0 0 0 0 0 0 0 0 0 0.15 0"/>
<feBlend mode="normal" in2="BackgroundImageFix" result="effect1_dropShadow_37_436"/>
<feBlend mode="normal" in="SourceGraphic" in2="effect1_dropShadow_37_436" result="shape"/>
</filter>
<clipPath id="clip0_37_436">
<rect width="19" height="21.1923" fill="white" transform="translate(8 8)"/>
</clipPath>
</defs>
</svg>
