<svg width="19" height="22" viewBox="0 0 19 22" fill="none" xmlns="http://www.w3.org/2000/svg">
<path d="M1.90736 18.7251C1.20774 18.7251 0.703094 19.2526 0.703094 19.9637C0.703094 20.6748 1.20774 21.2024 1.90736 21.2024H17.0582C17.7693 21.2024 18.2854 20.6748 18.2854 19.9637C18.2854 19.2526 17.7693 18.7251 17.0582 18.7251H9.7638C10.0161 18.6792 10.2455 18.5415 10.429 18.3466L17.7579 11.0865C18.0331 10.8113 18.1708 10.5016 18.1708 10.169C18.1708 9.45791 17.6546 8.94179 16.9665 8.94179C16.6109 8.94179 16.2898 9.09089 16.0604 9.32028L13.6977 11.6371L10.6355 14.9976L10.7502 12.589V1.91115C10.7502 1.15418 10.234 0.638062 9.5 0.638062C8.7545 0.638062 8.23839 1.15418 8.23839 1.91115V12.589L8.35308 15.009L5.29079 11.6371L2.9396 9.32028C2.69874 9.07942 2.38907 8.94179 2.03353 8.94179C1.3339 8.94179 0.829256 9.45791 0.829256 10.169C0.829256 10.5016 0.955418 10.8113 1.23068 11.0865L8.55953 18.3466C8.74303 18.5415 8.97242 18.6792 9.22474 18.7251H1.90736Z" fill="white"/>
</svg>
