<svg width="19" height="23" viewBox="0 0 19 23" fill="none" xmlns="http://www.w3.org/2000/svg">
<path d="M13.6053 12.1492L10.7768 15.2531L10.875 13.1913L10.8751 13.1913V13.1853V2.50746C10.8751 2.09991 10.7357 1.74886 10.4893 1.49924C10.2428 1.24955 9.89715 1.10938 9.5 1.10938C9.09763 1.10938 8.7491 1.2492 8.50095 1.49895C8.25284 1.74866 8.11338 2.09988 8.11338 2.50746V13.1853H8.11324L8.11352 13.1912L8.21174 15.2638L5.38332 12.1493L5.38346 12.1492L5.37852 12.1443L3.02798 9.8282C3.02786 9.82808 3.02774 9.82797 3.02763 9.82785C2.76451 9.5649 2.42361 9.41311 2.03352 9.41311C1.26252 9.41311 0.704249 9.98755 0.704249 10.7653C0.704249 11.1334 0.845306 11.4743 1.14228 11.7712L1.1427 11.7717L8.47003 19.0302C8.52714 19.0907 8.58868 19.1464 8.6541 19.1964H1.90736C1.13484 19.1964 0.578087 19.7838 0.578087 20.56C0.578087 21.3363 1.13484 21.9237 1.90736 21.9237H17.0582C17.8399 21.9237 18.4104 21.3386 18.4104 20.56C18.4104 19.7815 17.8399 19.1964 17.0582 19.1964H10.3344C10.3998 19.1464 10.4614 19.0907 10.5185 19.0302L17.8458 11.7717L17.8462 11.7712C18.1411 11.4764 18.2957 11.1361 18.2957 10.7653C18.2957 9.98675 17.7252 9.41311 16.9665 9.41311C16.5756 9.41311 16.2235 9.57691 15.9725 9.82776C15.9723 9.82791 15.9722 9.82806 15.972 9.8282L13.6102 12.1441L13.6101 12.144L13.6053 12.1492Z" fill="#E1E2E8" stroke="#E1E2E8" stroke-width="0.25"/>
</svg>
