<svg xmlns="http://www.w3.org/2000/svg" width="30" height="30" fill="none"><path fill="#E1E2E8" stroke="#E1E2E8" stroke-width=".4" d="M15 7.6a7.4 7.4 0 1 0 0 14.8 7.4 7.4 0 0 0 0-14.8Zm0 11.9a4.5 4.5 0 1 1 0-9 4.5 4.5 0 0 1 0 9Zm7.5-10.1a1.9 1.9 0 1 0 0-3.7 1.9 1.9 0 0 0 0 3.7Zm6.6-.2a8.5 8.5 0 0 0-2.3-6 8.5 8.5 0 0 0-6-2.3H9.2C7 1 5 1.5 3.2 3.2a8.5 8.5 0 0 0-2.3 6v11.6c.1 2.3.6 4.3 2.3 6a8.5 8.5 0 0 0 6 2.3h11.6c2.3-.1 4.3-.6 6-2.3a8.5 8.5 0 0 0 2.3-6V9.2Zm-3.4 14c-.4 1.2-1.3 2-2.5 2.5-.9.4-2.4.5-4 .6h-8.4c-1.6 0-3-.2-4-.6-1.1-.4-2-1.3-2.5-2.5-.4-.9-.5-2.4-.6-4v-8.4c0-1.6.2-3.1.6-4 .4-1.2 1.3-2 2.5-2.5 1-.4 2.4-.5 4-.6H14a104.5 104.5 0 0 0 5.2 0c1.6 0 3.1.2 4 .6 1.2.4 2 1.3 2.5 2.5.4 1 .5 2.4.6 4V14a103.6 103.6 0 0 0 0 2v3.2c0 1.6-.2 3.1-.6 4Z"/></svg>
