<svg width="30" height="26" viewBox="0 0 30 26" fill="none" xmlns="http://www.w3.org/2000/svg">
<path d="M27.5 14.75C28.4665 14.75 29.25 13.9665 29.25 13C29.25 12.0335 28.4665 11.25 27.5 11.25V14.75ZM1.26256 11.7626C0.579146 12.446 0.579146 13.554 1.26256 14.2374L12.3995 25.3744C13.0829 26.0578 14.191 26.0578 14.8744 25.3744C15.5578 24.691 15.5578 23.5829 14.8744 22.8995L4.97487 13L14.8744 3.10051C15.5578 2.41709 15.5578 1.30905 14.8744 0.625631C14.191 -0.0577862 13.0829 -0.0577862 12.3995 0.625631L1.26256 11.7626ZM27.5 11.25L2.5 11.25V14.75L27.5 14.75V11.25Z" fill="#E1E2E8"/>
</svg>
