<svg xmlns="http://www.w3.org/2000/svg" fill="none" viewBox="0 0 24 24"><path fill="#95A2CD" stroke="#22212C" stroke-linecap="round" stroke-linejoin="round" stroke-width="1.2" d="M1.3 3H15c.3 0 .4.4.2.6l-2.9 3H4.5v12.9h13v-7.8 0-.2L20 9.2c.1-.2.4-.5.6-.5.2 0 .4.2.4.4v13.6c0 .2 0 .3-.3.3H1.3c-.2 0-.3 0-.3-.3V3.3C1 3 1 3 1.3 3Z"/><path fill="#0ACF83" stroke="#22212C" stroke-linecap="round" stroke-linejoin="round" stroke-width="1.2" d="M17.9 3.2 13.1 8v.5l2.4 2.4h.5l5-5 1.3 1.5c.3.2.6.2.7-.2V1.3c0-.2 0-.3-.3-.3h-5.8c-.4 0-.5.4-.3.6l1.1 1.2c.2.2.3.3.2.4Z"/></svg>