<svg width="28" height="28" viewBox="0 0 28 28" fill="none" xmlns="http://www.w3.org/2000/svg">
<path d="M6.2675 28H0.4625V9.30583H6.2675V28ZM3.36187 6.75578C1.50562 6.75578 0 5.21824 0 3.36195C1.32862e-08 2.47031 0.354197 1.61518 0.98467 0.984692C1.61514 0.354204 2.47025 0 3.36187 0C4.2535 0 5.10861 0.354204 5.73908 0.984692C6.36955 1.61518 6.72375 2.47031 6.72375 3.36195C6.72375 5.21824 5.2175 6.75578 3.36187 6.75578ZM27.9937 28H22.2013V18.8998C22.2013 16.731 22.1575 13.9497 19.1831 13.9497C16.165 13.9497 15.7025 16.306 15.7025 18.7435V28H9.90375V9.30583H15.4712V11.8559H15.5525C16.3275 10.3871 18.2206 8.83707 21.045 8.83707C26.92 8.83707 28 12.7059 28 17.731V28H27.9937Z" fill="white"/>
</svg>
