<svg width="29" height="26" viewBox="0 0 29 26" fill="none" xmlns="http://www.w3.org/2000/svg">
<path d="M2 11.25C1.0335 11.25 0.25 12.0335 0.25 13C0.25 13.9665 1.0335 14.75 2 14.75V11.25ZM28.2374 14.2374C28.9209 13.554 28.9209 12.446 28.2374 11.7626L17.1005 0.625631C16.4171 -0.0577862 15.309 -0.0577862 14.6256 0.625631C13.9422 1.30905 13.9422 2.41709 14.6256 3.10051L24.5251 13L14.6256 22.8995C13.9422 23.5829 13.9422 24.691 14.6256 25.3744C15.309 26.0578 16.4171 26.0578 17.1005 25.3744L28.2374 14.2374ZM2 14.75H14.5V11.25H2V14.75ZM14.5 14.75H27V11.25H14.5V14.75Z" fill="#E1E2E8"/>
</svg>
