<svg xmlns="http://www.w3.org/2000/svg" width="56" height="56" fill="none"><rect width="50" height="50" x="3" y="3" fill="#2C2E36" rx="12"/><g clip-path="url(#a)"><path fill="#0ACF83" d="M23.1 43a5 5 0 0 0 5.2-5v-5H23a5 5 0 0 0-5.1 5 5 5 0 0 0 5.1 5Z"/><path fill="#A259FF" d="M18 28a5 5 0 0 1 5.1-5h5.2v10H23a5 5 0 0 1-5.1-5Z"/><path fill="#F24E1E" d="M18 18a5 5 0 0 1 5.1-5h5.2v10H23a5 5 0 0 1-5.1-5Z"/><path fill="#FF7262" d="M28.3 13h5.1a5 5 0 0 1 5.2 5 5 5 0 0 1-5.2 5h-5.1V13Z"/><path fill="#1ABCFE" d="M38.6 28a5 5 0 0 1-5.2 5 5 5 0 0 1-5.1-5 5 5 0 0 1 5.1-5 5 5 0 0 1 5.2 5Z"/></g><defs><clipPath id="a"><path fill="#fff" d="M0 0h20.6v30H0z" transform="translate(18 13)"/></clipPath></defs></svg>