<svg xmlns="http://www.w3.org/2000/svg" width="56" height="56" fill="none"><g clip-path="url(#a)"><rect width="50" height="50" x="3" y="3" fill="#F15132" rx="12"/><path fill="#fff" d="M6 23.5a17 17 0 0 1 17-17h9.5a17 17 0 0 1 17 17v10a17 17 0 0 1-17 17H23a17 17 0 0 1-17-17v-10Z"/><path fill="#F15132" d="M6.2 7.7a4 4 0 0 0-.6 1.8v8.2h9.7l.2-.4c0-.2.3-.5.5-.7.9-1 2-1.5 3.3-1.5.9 0 1.6.2 2.4.6l1 .8.7.8.2.4h9.3l.2-.3c.1-.3.3-.5.8-1l1-.8c1.2-.6 2.6-.7 3.8-.2.7.2 1 .5 1.6 1 .6.6.9 1 1.1 1.7.4 1.2.4 2.6-.1 3.6-.3.6-.5.8-1 1.3a4.6 4.6 0 0 1-7.3-1.2l-.2-.3h-8.7l5.8 5.7 5.8 5.8.4-.1a4.5 4.5 0 0 1 4.2 1.2c.6.6.8 1 1.1 1.7a4.6 4.6 0 0 1-.3 4l-1.6 1.6c-1.2.7-2.7.8-4 .3a4.6 4.6 0 0 1-2.7-5.9v-.2L27 29.8 21.2 24H21a5 5 0 0 1-3.4 0c-1-.5-2-1.3-2.3-2.3l-.2-.2H5.5v25.9c.2.9.7 1.7 1.3 2.3.7.6 1.4 1 2.2 1h38.2c.9-.2 1.4-.5 2-1.1.4-.4.5-.5.6-.8.3-.4.4-.8.5-1.3v-38c0-.5-.2-1-.5-1.4-.2-.5-.9-1.2-1.4-1.5-.5-.3-1.1-.4-1.8-.5H8.7l-.5.2a6 6 0 0 0-.8.3L6.2 7.7Z"/></g><defs><clipPath id="a"><rect width="50" height="50" x="3" y="3" fill="#fff" rx="12"/></clipPath></defs></svg>