<svg xmlns="http://www.w3.org/2000/svg" width="56" height="56" fill="none"><g clip-path="url(#a)"><rect width="50" height="50" x="3" y="3" fill="#fff" rx="12"/><path fill="#FF4B00" d="M53 53V2H28v51h25Z"/><path fill="#FF7816" d="M3 3v50h25V3H3Z"/></g><g clip-path="url(#b)" filter="url(#c)"><path fill="#ECECF1" d="M39 18.7H21.4l.5 5.8h16.5l-1 14.2-9.6 3.3-9.8-3.3-.2-4.7h4.7l.8 1.3 4.5 1.5 5.1-1.5.4-6H17.6L16.5 14h22.7l-.3 4.7Z"/><g clip-path="url(#d)"><path fill="#000" fill-opacity=".2" d="M39 18.7H21.4l.5 5.8h16.5l-1 14.2-9.6 3.3-9.8-3.3-.2-4.7h4.7l.8 1.3 4.5 1.5 5.1-1.5.4-6H17.6L16.5 14h22.7l-.3 4.7Z"/></g></g><defs><clipPath id="a"><rect width="50" height="50" x="3" y="3" fill="#fff" rx="12"/></clipPath><clipPath id="b"><path fill="#fff" d="M0 0h23v28H0z" transform="translate(16.5 14)"/></clipPath><clipPath id="d"><path fill="#fff" d="M0 0h12v28H0z" transform="translate(28 14)"/></clipPath><filter id="c" width="33" height="38" x="11.5" y="13" color-interpolation-filters="sRGB" filterUnits="userSpaceOnUse"><feFlood flood-opacity="0" result="BackgroundImageFix"/><feColorMatrix in="SourceAlpha" result="hardAlpha" values="0 0 0 0 0 0 0 0 0 0 0 0 0 0 0 0 0 0 127 0"/><feOffset dy="4"/><feGaussianBlur stdDeviation="2.5"/><feColorMatrix values="0 0 0 0 0 0 0 0 0 0 0 0 0 0 0 0 0 0 0.03 0"/><feBlend in2="BackgroundImageFix" result="effect1_dropShadow_214_581"/><feBlend in="SourceGraphic" in2="effect1_dropShadow_214_581" result="shape"/></filter></defs></svg>