<svg xmlns="http://www.w3.org/2000/svg" width="56" height="56" fill="none"><rect width="50" height="50" x="3" y="3" fill="#F7DF1E" rx="12"/><path fill="#000" d="m16.1 44.8 3.9-2.3c.7 1.3 1.4 2.4 3 2.4 1.5 0 2.5-.6 2.5-3V26h4.7V42c0 4.9-2.8 7-7 7-3.8 0-6-1.9-7-4.2Zm16.7-.5 3.8-2.2c1 1.6 2.3 2.8 4.6 2.8 2 0 3.2-1 3.2-2.3 0-1.6-1.3-2.2-3.4-3.1l-1.2-.5c-3.4-1.5-5.6-3.3-5.6-7.1 0-3.5 2.7-6.2 6.9-6.2 3 0 5 1 6.6 3.7l-3.6 2.4c-.8-1.4-1.7-2-3-2-1.4 0-2.3.9-2.3 2 0 1.4.9 2 2.9 2.8l1.2.6c4 1.7 6.2 3.4 6.2 7.3 0 4.3-3.3 6.6-7.8 6.6-4.3 0-7.2-2.1-8.5-4.8"/></svg>