<svg xmlns="http://www.w3.org/2000/svg" width="56" height="56" fill="none"><rect width="50" height="50" x="3" y="3" fill="#fff" rx="12"/><path fill="#000" d="M39.6 18.7a64 64 0 0 0-6.6 8.6h-.3c-.2 0-.3-.2-2-2.5-1.7-2.5-1.7-2.4-1.9-2.6-.2-.1-.8-.1-.8 0a104.9 104.9 0 0 0 4 6c.2.1.1.3-.1.6l-1 1.3-2 2.8a26 26 0 0 0-1.2 1.8h.3c.4 0 .7 0 1-.5a349.8 349.8 0 0 0 3.5-5c.3-.3.5-.1 1.3 1a118.6 118.6 0 0 0 3.5 4.5c.2 0 .6 0 .6-.2a212 212 0 0 0-4.2-5.9 1 1 0 0 1 0-.7l1.3-2a702.1 702.1 0 0 0 4.6-7.2ZM22.8 22.1H19v.2l-.2.3v11.9l.1.1.2.1h8.2v-.6h-7.5l-.1-.2-.1-.2v-2.5c0-2.5 0-2.5.3-2.6h3.5l3.3-.1v-.6H20c-.4-.2-.4-.1-.4-2.6v-2.2l.1-.1.2-.2H27.1v-.3c0-.2-.1-.4-.3-.4h-4ZM8.2 22.2l-.2.5a290.2 290.2 0 0 1 .2 12h.6l.1-5.7.1-5.4s.2 0 .8.8l3.6 5.3a93.1 93.1 0 0 0 5.8 8L19 37c-.1-.4-.6-1.1-3.4-5.3-4-6-6.3-9.4-6.5-9.5-.1-.1-.2-.2-.5-.2h-.4Z"/><path fill="#000" d="M38.4 22.2c-.2 0-.1.5 0 .5h2c1.7 0 2 .1 2 .2.4.2.4 0 .4 6v5.6l.4.2h.3l.1-.2v-5.4a239.5 239.5 0 0 0 .1-6.2l.2-.1h2l2-.1v-.5h-9.5ZM19.3 37.9c.1 0 .1 0 0 0 0-.1 0-.1 0 0Z"/></svg>