<svg xmlns="http://www.w3.org/2000/svg" width="56" height="56" fill="none"><g clip-path="url(#a)"><rect width="50" height="50" x="3" y="3" fill="#53C1DE" rx="12"/><path fill="#fff" d="M13 21.5c0 2.2 2.3 4.3 5.8 5.5-.7 3.5-.2 6.3 1.7 7.4 2 1.1 4.9.4 7.6-2 2.7 2.3 5.4 3.2 7.3 2 2-1 2.6-4 1.9-7.7 3.6-1.1 5.6-3 5.6-5.2s-2.2-4.1-5.6-5.3c.7-3.8.1-6.5-1.9-7.7-1.9-1-4.6-.1-7.4 2.3-2.8-2.5-5.5-3.3-7.5-2.2-1.9 1.1-2.4 4-1.7 7.6-3.4 1.1-5.7 3-5.7 5.3Z"/><path fill="#53C1DE" d="m36.6 17.4-.9-.3.1-.6c.7-3.1.3-5.7-1.2-6.5-1.4-.8-3.6 0-5.9 2l-.7.6-.4-.4c-2.4-2.1-4.8-3-6.2-2.2-1.4.8-1.8 3.2-1.2 6.2 0 .3 0 .6.2.9-.4 0-.7.2-1 .3-2.8 1-4.6 2.5-4.6 4 0 1.7 2 3.4 4.8 4.4l.7.2-.2 1c-.5 2.9 0 5.2 1.3 6 1.4.8 3.8 0 6.1-2l.6-.6.7.7c2.2 2 4.5 2.7 5.8 1.9 1.5-.8 2-3.3 1.3-6.4l-.1-.7.5-.1c3-1 5-2.7 5-4.3 0-1.6-1.9-3.2-4.7-4.1Z"/><path fill="#fff" d="m35.9 24.7-.4.1-1.4-3.3 1.3-3.3.8.2c2.4.9 4 2.1 4 3 0 1.1-1.7 2.4-4.3 3.3Zm-1 2.2c.2 1.3.2 2.5 0 3.5-.1.8-.4 1.4-.8 1.6-.9.5-2.6-.1-4.6-1.8l-.6-.6 2.2-2.8c1.3-.1 2.5-.3 3.6-.6l.1.7Zm-11 5c-.9.3-1.6.3-2 .1-.8-.5-1.1-2.3-.7-4.8l.2-1c1.1.3 2.3.5 3.6.6.7 1 1.5 2 2.3 2.8l-.5.5c-1 .9-2 1.5-3 1.8Zm-4-7.2c-1.2-.4-2.3-1-3-1.6-.7-.6-1-1.2-1-1.6 0-1 1.5-2.2 3.9-3l.9-.3c.3 1 .7 2.2 1.3 3.3L20.6 25l-.6-.2Zm1.4-8.7c-.5-2.6-.2-4.5.6-5 1-.5 2.9.2 5 2 0 .2.2.3.3.4L25 16.2c-1.3.2-2.4.3-3.5.6l-.2-.8Zm11.4 2.8a36 36 0 0 0-.8-1.3c.8 0 1.6.2 2.4.4l-.8 2.3-.8-1.4ZM28 14.3c.6.5 1 1.2 1.6 1.8h-3.1l1.5-1.8Zm-4.6 4.5-.8 1.4a25 25 0 0 1-.8-2.3l2.4-.4-.8 1.3Zm.8 6.8a24 24 0 0 1-2.5-.4l.9-2.4a33.3 33.3 0 0 0 1.6 2.8Zm3.9 3.2c-.6-.6-1.1-1.2-1.6-2a39.5 39.5 0 0 0 3.1 0l-1.5 2Zm5.4-6 .9 2.3-2.5.5a39.6 39.6 0 0 0 1.6-2.8Zm-1.8.8-1.3 2a34 34 0 0 1-4.8.1 32.1 32.1 0 0 1-2.4-4.2l1.1-2.1 1.3-2a32 32 0 0 1 4.8 0 34 34 0 0 1 2.5 4l-1.2 2.2ZM34.1 11c.8.5 1.2 2.6.6 5.3v.5a27 27 0 0 0-3.6-.6c-.8-1-1.5-2-2.3-2.8l.6-.5c2-1.7 3.8-2.4 4.7-2Z"/><path fill="#53C1DE" d="M28 19.1a2.4 2.4 0 1 1 0 4.7 2.4 2.4 0 0 1 0-4.7Z"/><path fill="#fff" d="M19.3 40.7V47h-1.2L15 43.2V47h-1.4v-6.3h1.2l3.1 3.8v-3.8h1.4Zm3.4 1.4c.7 0 1.3.2 1.7.5.4.4.6 1 .6 1.6V47h-1.3v-.6c-.3.4-.8.7-1.5.7-.3 0-.7 0-1-.2l-.6-.5-.2-.8c0-.4.2-.8.5-1 .4-.3.9-.4 1.6-.4h1.1c0-.4 0-.6-.3-.7-.2-.2-.4-.3-.8-.3a2.4 2.4 0 0 0-1.4.5l-.5-1a3 3 0 0 1 1-.5l1-.1Zm-.1 4 .6-.1.4-.5V45h-1c-.5 0-.8.2-.8.5 0 .2 0 .4.2.5l.6.1Zm6.8.7-.5.2h-.6c-.6 0-1 0-1.4-.4-.3-.3-.4-.7-.4-1.3v-2h-.8v-1h.8V41h1.4v1.2H29v1h-1.2v2l.1.5.5.2.5-.2.4 1Zm.8-4.6h1.4V47h-1.4v-4.8Zm.7-.7c-.3 0-.5 0-.6-.2a.7.7 0 0 1-.3-.6l.3-.6.6-.2c.3 0 .5 0 .6.2l.3.6-.3.6-.6.2Zm6.8.7-2 4.8h-1.5l-2-4.8h1.4l1.4 3.3 1.4-3.3h1.3Zm5.2 2.4v.4h-3.7c0 .3.2.5.5.7.2.2.5.2.9.2h.7l.5-.4.8.8c-.5.5-1.2.8-2 .8-.6 0-1-.1-1.5-.3a2.4 2.4 0 0 1-1.3-2.2c0-.5.1-1 .3-1.3.3-.4.6-.7 1-.9.3-.2.8-.3 1.3-.3s.9 0 1.3.3l.9.9c.2.4.3.8.3 1.3Zm-2.5-1.5c-.3 0-.6.1-.8.3-.2.2-.4.4-.4.8h2.4c0-.4-.2-.6-.4-.8-.2-.2-.5-.3-.8-.3Z"/></g><defs><clipPath id="a"><rect width="50" height="50" x="3" y="3" fill="#fff" rx="12"/></clipPath></defs></svg>