<svg xmlns="http://www.w3.org/2000/svg" width="56" height="56" fill="none"><rect width="50" height="50" x="3" y="3" fill="#53C1DE" rx="12"/><path fill="#fff" d="M11.1 28c0 2.5 2.4 4.8 6.2 6.1-.7 4-.1 7 2 8.3 2.1 1.2 5.3.3 8.4-2.3 3 2.5 5.9 3.5 8 2.3 2.1-1.2 2.8-4.6 2-8.6 4-1.3 6.2-3.3 6.2-5.8s-2.4-4.6-6.2-6c.9-4 .1-7.1-2-8.4-2.1-1.2-5.2-.2-8.2 2.5-3-2.8-6-3.7-8.2-2.4-2.1 1.2-2.7 4.4-2 8.4-3.7 1.3-6.2 3.4-6.2 5.9Z"/><path fill="#53C1DE" d="m37 23.4-1-.3.1-.7c.7-3.4.3-6.2-1.3-7.2-1.5-.9-4 0-6.5 2.3l-.8.6-.4-.4c-2.7-2.4-5.3-3.4-6.9-2.4-1.5.9-2 3.5-1.3 6.8l.2 1c-.4 0-.7.2-1 .3-3.2 1.1-5.1 2.8-5.1 4.6 0 1.8 2 3.6 5.3 4.7l.8.3-.3 1c-.6 3.3 0 5.9 1.4 6.8 1.6.9 4.2 0 6.8-2.3l.6-.6.8.7c2.4 2.2 4.9 3 6.4 2.2 1.6-1 2-3.7 1.4-7l-.2-.9.6-.1c3.3-1.2 5.5-3 5.5-4.8 0-1.8-2-3.5-5.2-4.6Z"/><path fill="#fff" d="m36.2 31.6-.5.1-1.5-3.7c.6-1.3 1-2.5 1.4-3.7l1 .3c2.6 1 4.2 2.3 4.2 3.4s-1.7 2.6-4.6 3.6ZM35 34c.3 1.5.3 2.8.1 3.9-.1.9-.5 1.5-1 1.8-.8.5-2.8-.2-5-2a18 18 0 0 1-.7-.7l2.5-3.1 4-.6v.7Zm-12.1 5.6c-.9.3-1.6.3-2 0-1-.5-1.3-2.5-.8-5.3l.2-1c1.2.3 2.5.5 4 .6.7 1.1 1.6 2.2 2.4 3.1l-.5.5c-1.2 1-2.3 1.7-3.3 2Zm-4.2-8c-1.4-.5-2.6-1.2-3.4-1.9-.7-.6-1-1.2-1-1.7 0-1 1.5-2.5 4.1-3.4l1-.3 1.4 3.7-1.4 3.8-.7-.2Zm1.4-9.7c-.5-2.9-.2-5 .7-5.5 1-.6 3.2.2 5.4 2.2l.5.4c-.9 1-1.7 2-2.5 3.2a30 30 0 0 0-3.9.6l-.2-1ZM32.7 25l-1-1.5 2.7.5a27 27 0 0 1-.9 2.5l-.8-1.5Zm-5.2-5 1.8 2h-3.5l1.7-2Zm-5.1 5-.8 1.5a28 28 0 0 1-1-2.5l2.7-.5-1 1.5Zm.9 7.5c-1 0-1.8-.2-2.7-.4l1-2.6a37 37 0 0 0 1.7 3Zm4.3 3.6L25.8 34a43 43 0 0 0 3.5 0L27.6 36Zm6-6.7.9 2.6-2.7.5a44.2 44.2 0 0 0 1.7-3Zm-2 1-1.4 2.3a37 37 0 0 1-5.3 0 35.8 35.8 0 0 1-2.7-4.7l1.3-2.4 1.4-2.2a34.9 34.9 0 0 1 5.3 0 38 38 0 0 1 2.6 4.6 38 38 0 0 1-1.2 2.4Zm2.6-14c1 .5 1.3 2.8.7 5.8l-.1.6c-1.2-.3-2.6-.5-4-.6-.7-1.2-1.6-2.2-2.4-3.2l.7-.6c2.1-1.9 4.1-2.6 5-2Z"/><path fill="#53C1DE" d="M27.5 25.3c1.5 0 2.6 1.2 2.6 2.7 0 1.4-1.1 2.6-2.6 2.6A2.6 2.6 0 0 1 25 28c0-1.5 1.2-2.7 2.6-2.7Z"/></svg>