<svg xmlns="http://www.w3.org/2000/svg" width="56" height="56" fill="none"><rect width="50" height="50" x="3" y="3" fill="#fff" rx="12"/><path fill="#764ABC" stroke="#764ABC" stroke-width=".3" d="M23.1 42c-.7.2-1.5.2-2.3.2-2.9 0-5.5-1.2-6.8-3.1-1.7-2.6-2.2-8.2 3.4-12.2l.2-.2v.3l.5 2c-.8.6-2 1.7-2.6 3-1 2-1 4 .3 5.8.8 1.3 2 2 3.8 2.2 2 .3 4.1 0 6.1-1.1 3-1.6 4.9-3.4 6.1-5.9-.3-.3-.5-.8-.5-1.4 0-1.3 1-2.3 2.2-2.4 1.3 0 2.3 1 2.3 2.2M23.1 42l12.6-10.6M23.1 42c5-1 8.7-3.9 10.8-8.2M23 42l10.7-8.3m2-2.3h-.1m.1 0h-.1m.1 0c0 1.2-.8 2.2-2 2.4m1.9-2.4c0 1.2-.8 2.1-2 2.3m.2 0h-.1m0 0v.1-.1m-8-11.3a2.3 2.3 0 0 0-2.1 2.3c0 1.2 1 2.2 2.3 2.2 1 0 1.7-.5 2-1.3h.6c2.9 0 5.6.9 8 2.5a10 10 0 0 1 4 4.8c.7 1.6.6 3 0 4.4-1 2-2.8 3-5.1 3-1.5 0-3-.4-3.7-.8h-.1L29.8 41l-.2.2h.2a12 12 0 0 0 5 1.3c3.8 0 6.5-2 7.6-4.1 1.1-2.3 1-6.2-1.9-9.5-3-3.4-7.2-5.3-12.2-5.3H28a2.3 2.3 0 0 0-2-1.1Zm-2.5 14.1c1.3 0 2.3-1 2.2-2.4 0-1.2-1-2.2-2.2-2.2H23a13.8 13.8 0 0 1-2-8.2 10 10 0 0 1 2.3-5.9c.5-.7 1.3-1.2 2.2-1.5a7 7 0 0 1 2.4-.6c2 0 3.3 1.2 4.3 2.7.9 1.5 1.3 3.2 1.4 4.2v.1h.1l2 .6h.1v-.2c-.5-6.2-4.3-9.5-8-9.5-3.6 0-6.8 2.5-8 6.3-1.9 4.9-.7 9.6 1.4 13.3a2 2 0 0 0-.2 1.1c0 1.2 1 2.2 2.3 2.2Z"/></svg>