<svg xmlns="http://www.w3.org/2000/svg" width="56" height="56" fill="none"><g clip-path="url(#a)"><rect width="50" height="50" x="3" y="3" fill="#C6538C" rx="12"/><rect width="48" height="49" x="4" y="4" fill="#fff" rx="24"/><path fill="#C6538C" d="M25 3.1A25 25 0 1 0 31 53 25 25 0 0 0 25 3Zm6 9.6c3.9 1.9 4 6.3.2 10a12 12 0 0 1-9.3 3.8c-2.4 0-4-.7-4.7-2-.6-1.1-.3-1.3 1-.4 1.7 1.2 5.4.9 8.5-.7 3.6-1.8 5.9-6 4.2-7.6-.8-.9-1.8-1.1-4.1-1.1-4.4 0-9.7 2.2-13.4 5.6-2 1.8-2.7 3.2-2.7 4.8 0 1.6.6 2.6 2.7 4.3l2.7 2.4 1 .9 2-1a18 18 0 0 0 3-2.1c1.3-1.3 2-1.7 3-1.7s1.3.5 1.3 1.6c0 .5.1.9.3.8.1 0 .4 0 .7.2.5.4.5.5-.1 3-.4 1.4-.6 2.6-.5 2.7.1.2 3.4-7 3.9-8.6.3-1 .5-1.2 1.2-1.3 1.5-.3 2 0 1.6 1-.2 1.3-.2 3.2.2 3.8.2.3.4 0 1.3-1.5l1.4-3.2c.3-1.2.3-1.2 1.7-1.3h1.3l-.2 1.1c-.3 1.6-.2 2.7.2 3.7.3.6.5.8 1 .6a12 12 0 0 1 4.7-.3c1.6.3 2 .5 3.2 1.7.8.8 1 1.3 1.1 2.4.1 1.1 0 1.4-.6 2.2-.4.5-1 1-1.3 1-.7 0-.7-.3.2-1 1-.8 1-2.4-.3-3.5a7 7 0 0 0-5.5-1.3c-1.3.3-1.3.3-1.2 1.3.2 1.9-1 3.4-3.2 4.1-.8.3-1 .3-1.5-.3-.4-.3-.5-.7-.4-1.1.3-1 .9-2 1.7-3 .7-.8.7-.9.2-1.7-.2-.5-.4-1.1-.4-1.5 0-.7 0-.8-1.5 1.9-1 1.5-1 1.7-.7 2.7.3.9.2 1.2-.2 2.1a4.6 4.6 0 0 1-4 2.4c-1.9 0-1.8-.6.6-3.5 1-1.3 1.1-1.4.8-2.3a25 25 0 0 1-.6-1.7l-.2-.8-.5 1c-1.7 4-3.6 7.4-4.4 7.9-.8.4-1.7-.4-1.7-1.7v-1l-.7 1.3c-.3.7-1 1.5-1.4 1.8-.7.4-.7.4-1.4-.1-.4-.3-1-1-1.1-1.5a9.2 9.2 0 0 1-.1-4.6l.3-.7-1.1.6c-1 .6-1.1.7-.8 1.4.4 1.2 0 3.8-.6 5.2a8.4 8.4 0 0 1-3.6 3.3c-1 .4-3.4.6-4.2.3-1.2-.5-1.7-3.3-.9-4.9a14 14 0 0 1 4.8-4.1l1.6-.9-2.7-2c-5.2-3.7-6.4-6-4.9-9.3.9-1.8 4.5-5.3 7-6.8 4.5-2.7 7.7-3.6 11.8-3.6 2.5.1 3.2.2 4.3.8Z"/><path fill="#C6538C" d="M23.4 31.1a8 8 0 0 0-1.3 5.1c.1.9.2 1 .5.6.4-.4 1.9-4 2.4-6 .2-.8.2-1-.3-1-.3 0-.8.5-1.3 1.3ZM37.7 34.4c-.4.6-.6 1.2-.5 1.2.3.3 1.3-.9 1.5-1.6.3-1.2-.3-1-1 .4ZM15 35.7c-.8.5-2 1.4-2.5 2-.8 1-1 1.4-1 2.2.2 1.3 1 1.5 2.6.6a4.7 4.7 0 0 0 2.4-4.4v-1.4l-1.5 1ZM32 36.3c-.8.8-.8.9-.3.6.6-.3 1.4-1.4 1.1-1.5l-.9.9Z"/></g><defs><clipPath id="a"><rect width="50" height="50" x="3" y="3" fill="#fff" rx="12"/></clipPath></defs></svg>