<svg xmlns="http://www.w3.org/2000/svg" width="56" height="56" fill="none"><rect width="50" height="50" x="3" y="3" fill="#F05039" rx="12"/><path fill="#fff" d="M7.5 9H48v38.5H7.5z"/><path fill="#F05039" d="M12.6 3.1C8 3.7 4.7 6.5 3.4 11c-.4 1.6-.6 30.5-.1 32.8.4 2.2 1.3 4 2.7 5.5 1.4 1.6 3 2.5 5.2 3.1 1.5.5 2 .5 15.4.6 14.4 0 16.5 0 19-.8a12 12 0 0 0 5-3.6 12 12 0 0 0 2.1-4.8c.4-2.5.4-29.7 0-31.7-.9-4.4-3.6-7.4-8-8.6C43.3 3.1 43 3 28.7 3l-16 .1Zm20.4 8c7.4 5.4 11.6 14.4 10 21.5l-.3 1.3.7 1c1.7 2.4 2.8 6 2.4 8 0 .5-.3 1-.4 1l-1-1c-.8-1.2-2-1.9-3.5-2-1.5-.2-2.9.2-5 1.2a14.7 14.7 0 0 1-6.8 1.6c-2 0-3 0-4.4-.2A26.1 26.1 0 0 1 7.8 31.9l.9.4c2.2 1.6 5.7 3.1 8.6 3.8 1.8.4 5.6.4 7.4 0 1.2-.2 4.2-1.3 4.4-1.6l-2.3-2.1a97.4 97.4 0 0 1-15.3-17.2l1.6 1.2c2 1.8 6.6 5.3 9.7 7.5 3.4 2.4 3.4 2.4 3 1.8L24.2 24c-2.5-2.8-8.1-10.1-8.1-10.6l2 1.8A111 111 0 0 0 34.4 28c.1 0 .4-.6.6-1.3.3-.9.3-1.8.3-4.3 0-2.9 0-3.3-.5-5-.7-2-1.8-4.4-2.9-6-1-1.7-1-1.7 1-.2Z"/></svg>