<svg xmlns="http://www.w3.org/2000/svg" width="56" height="56" fill="none"><rect width="50" height="50" x="3" y="3" fill="#3178C6" rx="12"/><path fill="#fff" fill-rule="evenodd" d="M34 42.8v4.9c.7.4 1.7.7 2.8.9a18.6 18.6 0 0 0 6.7 0c1.1-.3 2-.6 2.8-1.1a5.6 5.6 0 0 0 2.6-5.1c0-1-.1-1.7-.4-2.4-.3-.6-.6-1.2-1.1-1.7-.5-.6-1.1-1-1.8-1.4-.7-.5-1.5-.8-2.4-1.2a29.8 29.8 0 0 1-3-1.6c-.4-.2-.7-.5-.9-.8l-.2-1c0-.3 0-.6.2-.9l.7-.7a4 4 0 0 1 1.2-.4l1.5-.2a9.7 9.7 0 0 1 5.2 1.6V27a12 12 0 0 0-2.4-.7 19.9 19.9 0 0 0-6.3.2c-1 .3-2 .7-2.8 1.2-.8.5-1.4 1.2-1.9 2a6 6 0 0 0-.6 3c0 1.4.4 2.6 1.2 3.7.9 1 2.1 1.9 3.8 2.6a51.9 51.9 0 0 1 3.4 1.6c.5.3.8.6 1 1a1.9 1.9 0 0 1 .2 2 2 2 0 0 1-.7.7l-1.2.4a9.3 9.3 0 0 1-7.7-2Zm-8.3-12H32v-4H14.5v4h6.3v17.8h5V30.7Z" clip-rule="evenodd"/></svg>